<svg width="64" height="64" viewBox="0 0 64 64" fill="none" xmlns="http://www.w3.org/2000/svg">
  <!-- AI 智能推理 - 大脑/神经网络图标 -->

  <!-- 大脑轮廓 -->
  <path d="M20 24C20 17.3726 25.3726 12 32 12C38.6274 12 44 17.3726 44 24V32C44 38.6274 38.6274 44 32 44C25.3726 44 20 38.6274 20 32V24Z" stroke="#A78BFA" stroke-width="2.5" fill="none"/>

  <!-- 神经连接节点 -->
  <circle cx="28" cy="24" r="2.5" fill="#A78BFA"/>
  <circle cx="36" cy="24" r="2.5" fill="#A78BFA"/>
  <circle cx="32" cy="32" r="2.5" fill="#A78BFA"/>
  <circle cx="26" cy="36" r="2.5" fill="#A78BFA"/>
  <circle cx="38" cy="36" r="2.5" fill="#A78BFA"/>

  <!-- 神经连接线 -->
  <line x1="28" y1="24" x2="32" y2="32" stroke="#A78BFA" stroke-width="1.5" opacity="0.6"/>
  <line x1="36" y1="24" x2="32" y2="32" stroke="#A78BFA" stroke-width="1.5" opacity="0.6"/>
  <line x1="32" y1="32" x2="26" y2="36" stroke="#A78BFA" stroke-width="1.5" opacity="0.6"/>
  <line x1="32" y1="32" x2="38" y2="36" stroke="#A78BFA" stroke-width="1.5" opacity="0.6"/>

  <!-- AI 火花效果 -->
  <path d="M44 18L46 20L48 18" stroke="#FCD34D" stroke-width="2" stroke-linecap="round" stroke-linejoin="round"/>
  <path d="M16 26L18 28L20 26" stroke="#FCD34D" stroke-width="2" stroke-linecap="round" stroke-linejoin="round"/>
  <circle cx="40" cy="40" r="1.5" fill="#FCD34D"/>
</svg>
