<svg width="64" height="64" viewBox="0 0 64 64" fill="none" xmlns="http://www.w3.org/2000/svg">
  <!-- 50+ 主题风格 - 调色板图标 -->

  <!-- 调色板主体 -->
  <path d="M32 12C20.402 12 11 21.402 11 33C11 38.523 15.477 43 21 43H28C30.209 43 32 44.791 32 47C32 48.105 31.552 49.105 30.828 49.828C30.105 50.552 29.105 51 28 51C26.895 51 25.895 50.552 25.172 49.828C24.448 49.105 24 48.105 24 47H16C16 50.313 17.318 53.313 19.515 55.485C21.687 57.682 24.687 59 28 59C31.313 59 34.313 57.682 36.485 55.485C38.682 53.313 40 50.313 40 47C40 40.373 34.627 35 28 35H21C19.895 35 19 34.105 19 33C19 25.82 24.82 20 32 20C39.18 20 45 25.82 45 33V35H47C50.313 35 53 32.313 53 29C53 25.687 50.313 23 47 23C45.895 23 44.895 23.448 44.172 24.172C43.448 24.895 43 25.895 43 27H35C35 23.687 36.318 20.687 38.515 18.515C40.687 16.318 43.687 15 47 15C54.18 15 60 20.82 60 29C60 36.732 53.732 43 46 43H45C45 48.523 40.523 53 35 53H32V51C34.209 51 36 49.209 36 47C36 44.791 34.209 43 32 43Z" fill="#EC4899" fill-opacity="0.15" stroke="#EC4899" stroke-width="2"/>

  <!-- 色点 -->
  <circle cx="24" cy="24" r="3" fill="#EF4444"/>
  <circle cx="32" cy="26" r="3" fill="#F59E0B"/>
  <circle cx="40" cy="28" r="3" fill="#10B981"/>
  <circle cx="28" cy="32" r="3" fill="#3B82F6"/>
  <circle cx="36" cy="34" r="3" fill="#8B5CF6"/>
</svg>
